<?xml version="1.0" encoding="UTF-8"?>
<svg id="Layer_2" data-name="Layer 2" xmlns="http://www.w3.org/2000/svg" viewBox="0 0 258.61 152.77">
  <defs>
    <style>
      .cls-1 {
        fill: #fff;
      }

      .cls-2 {
        fill: #a48242;
      }
    </style>
  </defs>
  <g id="Layer_1-2" data-name="Layer 1">
    <g>
      <g>
        <path class="cls-1" d="M32.62,142.4c.87-.51,1.48-1.36,1.48-2.34,0-1.57-1.25-2.83-3.64-2.83h-5.08v.4c1.57,0,1.8.3,1.8,2.19v6.14c0,1.89-.23,2.21-1.8,2.21v.4h5.61c2.62,0,4.06-1.42,4.06-3.17,0-1.36-.96-2.53-2.42-2.98ZM28.68,137.93h1.68c1.42,0,2.08.96,2.08,2.13s-.66,2.11-2.08,2.11h-1.68v-4.25ZM30.96,147.86h-.49c-1.57,0-1.8-.3-1.8-2.19v-2.79h2.29c1.64,0,2.42,1.13,2.42,2.51s-.78,2.47-2.42,2.47Z"/>
        <path class="cls-1" d="M48.44,137.63c1.57,0,1.81.3,1.81,2.19v4.62c0,2.45-1.49,3.59-3.47,3.59s-3.31-1.13-3.31-3.59v-4.62c0-1.89.23-2.19,1.8-2.19v-.4h-5.1v.4c1.57,0,1.79.3,1.79,2.19v4.53c0,2.96,2.04,4.53,4.53,4.53s4.55-1.57,4.55-4.53v-4.53c0-1.89.24-2.19,1.81-2.19v-.4h-4.42v.4Z"/>
        <path class="cls-1" d="M57.58,137.23v.4c1.57,0,1.8.3,1.8,2.19v6.14c0,1.89-.23,2.21-1.8,2.21v.4h5.1v-.4c-1.57,0-1.8-.32-1.8-2.21v-3.04h.94c1.89,0,2.19.23,2.19,1.81h.4v-4.32h-.4c0,1.58-.3,1.81-2.19,1.81h-.94v-4.29h3.12c1.72,0,1.92.43,2.17,1.42l.1.38h.4l-.15-2.49h-8.93Z"/>
        <path class="cls-1" d="M80.49,146.43c-.24,1-.45,1.44-2.19,1.44h-1.62c-1.57,0-1.79-.3-1.79-2.19v-2.76h.94c1.89,0,2.19.23,2.19,1.81h.4v-4.32h-.4c0,1.58-.3,1.81-2.19,1.81h-.94v-4.29h2.79c1.74,0,1.92.43,2.19,1.42l.09.38h.4l-.17-2.49h-8.61v.4c1.57,0,1.79.3,1.79,2.19v6.14c0,1.89-.23,2.21-1.79,2.21v.4h9.25l.15-2.51h-.4l-.09.38Z"/>
        <path class="cls-1" d="M85.79,137.23l-.17,2.55h.4l.09-.38c.27-1,.46-1.44,2.19-1.44h2.45v7.99c0,1.89-.24,2.21-1.81,2.21v.4h5.13v-.4c-1.57,0-1.81-.32-1.81-2.21v-7.99h2.45c1.74,0,1.93.43,2.19,1.44l.09.38h.4l-.17-2.55h-11.44Z"/>
        <path class="cls-1" d="M110.81,146.43c-.24,1-.45,1.44-2.19,1.44h-1.62c-1.57,0-1.79-.3-1.79-2.19v-2.76h.94c1.89,0,2.19.23,2.19,1.81h.4v-4.32h-.4c0,1.58-.3,1.81-2.19,1.81h-.94v-4.29h2.79c1.74,0,1.92.43,2.19,1.42l.09.38h.4l-.17-2.49h-8.61v.4c1.57,0,1.79.3,1.79,2.19v6.14c0,1.89-.23,2.21-1.79,2.21v.4h9.25l.15-2.51h-.4l-.09.38Z"/>
        <path class="cls-1" d="M124.51,137.63c1.57,0,1.79.3,1.79,2.19v9.78c0,1.81-.68,2.61-1.79,2.61-.98,0-1.47-.66-1.47-1.23,0-.36-.29-.64-.64-.64-.38,0-.66.28-.66.64,0,1.17,1.66,1.79,2.77,1.79,1.47,0,3.31-.68,3.31-3.38v-9.57c0-1.89.23-2.19,1.79-2.19v-.4h-5.1v.4Z"/>
        <path class="cls-1" d="M142.63,137.63c1.57,0,1.81.3,1.81,2.19v4.62c0,2.45-1.49,3.59-3.47,3.59s-3.31-1.13-3.31-3.59v-4.62c0-1.89.23-2.19,1.79-2.19v-.4h-5.1v.4c1.57,0,1.8.3,1.8,2.19v4.53c0,2.96,2.04,4.53,4.53,4.53s4.55-1.57,4.55-4.53v-4.53c0-1.89.24-2.19,1.81-2.19v-.4h-4.42v.4Z"/>
        <path class="cls-1" d="M159.31,145.76l-1.85-2.17c2.13-.23,3.36-1.53,3.36-3.17,0-1.76-1.43-3.19-4.06-3.19h-4.98v.4c1.57,0,1.8.3,1.8,2.19v6.14c0,1.89-.23,2.21-1.8,2.21v.4h5.1v-.4c-1.57,0-1.8-.32-1.8-2.21v-2.36h.89l3.74,4.97h3.11v-.4c-1.13-.13-2.39-1.07-3.51-2.4ZM155.07,142.91v-4.99h1.66c1.65,0,2.4,1.13,2.4,2.49s-.75,2.49-2.4,2.49h-1.66Z"/>
        <path class="cls-1" d="M167.08,137.63c1.57,0,1.79.3,1.79,2.19v6.14c0,1.89-.23,2.21-1.79,2.21v.4h5.1v-.4c-1.57,0-1.79-.32-1.79-2.21v-6.14c0-1.89.23-2.19,1.79-2.19v-.4h-5.1v.4Z"/>
        <path class="cls-1" d="M171.71,134.15c0-.23-.19-.55-.55-.55-.3,0-.51.17-.83.45l-1.76,1.64.09.13,2.59-1.11c.17-.08.46-.28.46-.57Z"/>
        <path class="cls-1" d="M182.33,137.23h-5.12v.4c1.57,0,1.79.3,1.79,2.19v6.14c0,1.89-.23,2.21-1.79,2.21v.4h5.12c4.4,0,6.31-2.55,6.31-5.66s-1.9-5.67-6.31-5.67ZM182.35,147.86h-.08c-1.55,0-1.75-.3-1.75-2.19v-7.74h1.83c3.68,0,4.48,2.76,4.48,4.97s-.79,4.97-4.48,4.97Z"/>
        <path class="cls-1" d="M193.82,137.63c1.57,0,1.79.3,1.79,2.19v6.14c0,1.89-.23,2.21-1.79,2.21v.4h5.1v-.4c-1.57,0-1.79-.32-1.79-2.21v-6.14c0-1.89.23-2.19,1.79-2.19v-.4h-5.1v.4Z"/>
        <path class="cls-1" d="M213.6,138.51c-.96-1.02-2.19-1.6-3.51-1.6-3.19,0-5.8,2.7-5.8,5.99s2.61,5.99,5.8,5.99c1.32,0,2.55-.6,3.51-1.61.24.17.55.62.64,1.08h.38v-4.15h-.38c-.53,2.42-1.98,3.93-4.08,3.93-3.02,0-4.12-2.89-4.12-5.23s1.1-5.25,4.12-5.25c2.09,0,3.55,1.49,4.08,3.95h.38v-4.15h-.38c-.09.47-.4.89-.64,1.07Z"/>
        <path class="cls-1" d="M226.95,136.91c-3.47,0-6.31,2.7-6.31,5.99s2.83,5.99,6.31,5.99,6.29-2.7,6.29-5.99-2.83-5.99-6.29-5.99ZM226.95,148.13c-3.27,0-4.51-2.89-4.51-5.23s1.25-5.25,4.51-5.25,4.49,2.91,4.49,5.25-1.25,5.23-4.49,5.23Z"/>
        <path class="cls-1" d="M41.78,65.96c-6.34,0-7.26-1.3-7.26-8.94v-9.55h6.8c10.62,0,16.42-5.73,16.42-12.83s-5.81-12.91-16.42-12.91h-20.17v1.6c6.34,0,7.26,1.22,7.26,8.86v24.83c0,7.64-.92,8.94-7.26,8.94v1.6h20.63v-1.6ZM34.53,24.55h6.72c6.65,0,9.7,4.58,9.7,10.08s-3.06,10.08-9.7,10.08h-6.72v-20.17Z"/>
        <path class="cls-1" d="M54.22,67.56h17.88v-1.6c-6.34,0-7.79-1.68-5.96-5.81l3.67-8.48h18.49l3.67,8.48c1.83,4.2.38,5.81-5.96,5.81v1.6h21.16v-1.6c-6.34,0-6.72-1.3-9.09-6.65l-16.88-38.89h-.99l-16.81,38.89c-2.37,5.35-2.75,6.65-9.17,6.65v1.6ZM78.97,30.43l8.02,18.41h-15.97l7.95-18.41Z"/>
        <path class="cls-1" d="M42.13,124.49v-16.94h-1.54c-2.16,9.86-8.09,16.02-16.63,16.02-12.32,0-16.79-11.78-16.79-21.33s4.47-21.41,16.79-21.41c8.55,0,14.48,6.08,16.63,16.09h1.54v-16.94h-1.54c-.38,1.92-1.62,3.62-2.62,4.39-3.93-4.16-8.93-6.55-14.32-6.55-13.02,0-23.64,11.01-23.64,24.41s10.63,24.41,23.64,24.41c5.39,0,10.4-2.47,14.32-6.55,1,.69,2.23,2.54,2.62,4.39h1.54Z"/>
        <path class="cls-1" d="M139.47,117.03l-17.02-39.2h-1l-16.94,39.2c-2.14,4.84-2.69,6.39-7.45,6.65-4.88-.28-5.65-2.02-5.65-8.96v-25.03c0-7.7.92-8.93,7.39-8.93v-1.62h-20.95v1.62c6.39,0,7.39,1.23,7.39,8.93v9.71h-26.11v-9.71c0-7.7.92-8.93,7.32-8.93v-1.62h-20.79v1.62c6.39,0,7.32,1.23,7.32,8.93v25.03c0,7.7-.92,9.01-7.32,9.01v1.62h20.79v-1.62c-6.39,0-7.32-1.31-7.32-9.01v-12.48h26.11v12.48c0,7.7-1,9.01-7.39,9.01v1.62h35.44v-1.62c-6.39,0-7.86-1.69-6.01-5.85l3.7-8.55h18.64l3.7,8.55c1.85,4.23.38,5.85-6.01,5.85v1.62h21.33v-1.62c-6.39,0-6.78-1.31-9.17-6.7ZM112.21,106.47l8.01-18.56,8.09,18.56h-16.1Z"/>
        <path class="cls-1" d="M217.03,116.64c-1,4.08-1.85,5.85-8.93,5.85h-6.62c-6.39,0-7.32-1.23-7.32-8.93v-11.24h3.85c7.7,0,8.93.92,8.93,7.39h1.62v-17.64h-1.62c0,6.47-1.23,7.39-8.93,7.39h-3.85v-17.48h11.4c7.09,0,7.86,1.77,8.93,5.78l.38,1.54h1.62l-.69-10.17h-49.53v1.62c6.39,0,7.86,1.69,6.01,5.85l-12.94,29.96-13.09-29.96c-1.85-4.24-.38-5.85,6.01-5.85v-1.62h-21.33v1.62c6.39,0,6.78,1.23,9.16,6.7l17.02,39.2h1l16.94-39.2c2.14-4.9,2.69-6.4,7.38-6.65,4.81.27,5.57,1.96,5.57,8.89v25.03c0,7.7-.92,9.01-7.32,9.01v1.62h37.74l.62-10.24h-1.62l-.38,1.54Z"/>
        <path class="cls-1" d="M256.99,115.1l-.39,1.54c-1,4.08-1.85,5.85-8.93,5.85h-17.33l26.57-42.44v-.92h-32.81l-.69,10.17h1.62l.38-1.54c1-4,1.85-5.78,8.93-5.78h14.17l-25.95,41.59v1.77h35.43l.62-10.24h-1.62Z"/>
        <path class="cls-1" d="M129.81,68.89c.62-.31,1.77-1.16,1.77-2.31,0-.92-.69-2.23-2.16-2.23-1.31,0-2.16.69-3.39,1.85l-7.24,6.7.38.54,10.63-4.54Z"/>
      </g>
      <g>
        <polygon class="cls-2" points="149.6 12.74 147.47 16.14 199.16 16.14 197.03 12.74 149.6 12.74"/>
        <path class="cls-2" d="M172.74,8.98c.3.3.8.3,1.1,0l2.24-2.24c1.54-1.54,1.54-4.04,0-5.59-1.54-1.54-4.04-1.54-5.59,0-1.54,1.54-1.54,4.04,0,5.59l2.24,2.24Z"/>
        <path class="cls-2" d="M210.97,23.33h14.46c7.23,0,8.09,1.81,9.11,5.89l.39,1.57h1.65l-.71-10.37h-33.47v.94l27.1,43.29h-17.68c-7.23,0-8.09-1.81-9.11-5.97l-.39-1.57h-1.65l.63,10.45h36.14v-1.81l-26.48-42.42Z"/>
        <path class="cls-2" d="M173.33,19.67c-14.12,0-25.62,10.97-25.62,24.32s11.51,24.32,25.62,24.32,25.55-10.97,25.55-24.32-11.51-24.32-25.55-24.32ZM173.33,65.24c-13.27,0-18.33-11.74-18.33-21.25s5.06-21.33,18.33-21.33,18.26,11.81,18.26,21.33-5.06,21.25-18.26,21.25Z"/>
        <path class="cls-2" d="M144.23,21.36v-.94h-33.47l-.71,10.37h1.65l.39-1.57c1.02-4.08,1.89-5.89,9.11-5.89h14.46l-26.48,42.42v1.81h12.22l3.14-2.91h-7.42l27.1-43.29Z"/>
        <path class="cls-2" d="M143.91,58.68c-1.02,4.16-1.89,5.97-9.11,5.97h-1.55c.3.61.47,1.27.47,1.93,0,.34-.06.67-.14.98h11.74l.63-10.45h-1.65l-.39,1.57Z"/>
      </g>
    </g>
  </g>
</svg>